<?xml version="1.0" encoding="UTF-8"?>
<svg width="512" height="512" viewBox="0 0 512 512" fill="none" xmlns="http://www.w3.org/2000/svg">
  <rect width="512" height="512" rx="256" fill="#10A37F"/>
  <path d="M256 96C176.5 96 112 160.5 112 240C112 295.6 146.9 343.7 196 367.2V416H316V367.2C365.1 343.7 400 295.6 400 240C400 160.5 335.5 96 256 96ZM316 339.1V352H196V339.1C154.4 323.4 128 284.8 128 240C128 169.3 185.3 112 256 112C326.7 112 384 169.3 384 240C384 284.8 357.6 323.4 316 339.1Z" fill="white"/>
  <path d="M256 144C203.1 144 160 187.1 160 240C160 292.9 203.1 336 256 336C308.9 336 352 292.9 352 240C352 187.1 308.9 144 256 144ZM256 320C212 320 176 284 176 240C176 196 212 160 256 160C300 160 336 196 336 240C336 284 300 320 256 320Z" fill="white"/>
  <circle cx="256" cy="240" r="48" fill="white"/>
</svg> 