<?xml version="1.0" encoding="UTF-8"?>
<svg width="512" height="512" viewBox="0 0 512 512" fill="none" xmlns="http://www.w3.org/2000/svg">
    <!-- Background circle -->
    <circle cx="256" cy="256" r="248" fill="#ffffff" stroke="#00796B" stroke-width="16"/>
    
    <!-- Islamic geometric pattern -->
    <g transform="translate(256 256)">
        <!-- Eight-pointed star pattern -->
        <path d="M0,-180 L127.28,-127.28 L180,0 L127.28,127.28 L0,180 L-127.28,127.28 L-180,0 L-127.28,-127.28 Z" 
              fill="none" stroke="#00796B" stroke-width="4"/>
        
        <!-- Inner octagon -->
        <path d="M0,-120 L84.85,-84.85 L120,0 L84.85,84.85 L0,120 L-84.85,84.85 L-120,0 L-84.85,-84.85 Z" 
              fill="none" stroke="#00796B" stroke-width="4"/>
        
        <!-- Center circle -->
        <circle cx="0" cy="0" r="60" fill="none" stroke="#00796B" stroke-width="4"/>
        
        <!-- Connecting lines -->
        <g stroke="#00796B" stroke-width="2">
            <line x1="0" y1="-180" x2="0" y2="-60"/>
            <line x1="127.28" y1="-127.28" x2="42.43" y2="-42.43"/>
            <line x1="180" y1="0" x2="60" y2="0"/>
            <line x1="127.28" y1="127.28" x2="42.43" y2="42.43"/>
            <line x1="0" y1="180" x2="0" y2="60"/>
            <line x1="-127.28" y1="127.28" x2="-42.43" y2="42.43"/>
            <line x1="-180" y1="0" x2="-60" y2="0"/>
            <line x1="-127.28" y1="-127.28" x2="-42.43" y2="-42.43"/>
        </g>
    </g>
    
    <!-- AI text -->
    <g transform="translate(256 380)">
        <text x="0" y="0" font-family="Arial" font-size="48" font-weight="bold" fill="#00796B" text-anchor="middle">
            Islamic AI
        </text>
    </g>
</svg>